<?xml version="1.0" encoding="UTF-8" standalone="no"?>
<!DOCTYPE svg PUBLIC "-//W3C//DTD SVG 1.1//EN"
 "http://www.w3.org/Graphics/SVG/1.1/DTD/svg11.dtd">
<!-- Generated by graphviz version 2.42.4 (0)
 -->
<!-- Title: G Pages: 1 -->
<svg width="656pt" height="766pt"
 viewBox="0.00 0.00 655.80 765.80" xmlns="http://www.w3.org/2000/svg" xmlns:xlink="http://www.w3.org/1999/xlink">
<g id="graph0" class="graph" transform="scale(1 1) rotate(0) translate(32.4 733.4)">
<title>G</title>
<polygon fill="white" stroke="transparent" points="-32.4,32.4 -32.4,-733.4 623.4,-733.4 623.4,32.4 -32.4,32.4"/>
<text text-anchor="middle" x="295.5" y="-677.8" font-family="DejaVu Sans" font-size="24.00" fill="#16324c">MÔ HÌNH QUAN HỆ SAU KHI CHUYỂN ĐỔI ERD</text>
<!-- PHIEUXUAT -->
<g id="node1" class="node">
<title>PHIEUXUAT</title>
<polygon fill="#d8ecff" stroke="transparent" points="202.5,-364.5 202.5,-395.5 309.5,-395.5 309.5,-364.5 202.5,-364.5"/>
<text text-anchor="start" x="210.5" y="-377.3" font-family="DejaVu Sans" font-weight="bold" font-size="14.00">PHIEUXUAT</text>
<text text-anchor="start" x="210.5" y="-345.3" font-family="DejaVu Sans" font-size="14.00">SoPX (PK)</text>
<text text-anchor="start" x="210.5" y="-314.3" font-family="DejaVu Sans" font-size="14.00">NgayXuat</text>
<polygon fill="none" stroke="#3575ae" points="201,-302 201,-397 310,-397 310,-302 201,-302"/>
</g>
<!-- CTPX -->
<g id="node6" class="node">
<title>CTPX</title>
<polygon fill="#ffebbd" stroke="transparent" points="412.5,-457.5 412.5,-488.5 588.5,-488.5 588.5,-457.5 412.5,-457.5"/>
<text text-anchor="start" x="420.5" y="-470.3" font-family="DejaVu Sans" font-weight="bold" font-size="14.00">CHITIET_PHIEUXUAT</text>
<text text-anchor="start" x="420.5" y="-438.3" font-family="DejaVu Sans" font-size="14.00">SoPX (PK, FK)</text>
<text text-anchor="start" x="420.5" y="-407.3" font-family="DejaVu Sans" font-size="14.00">MaVTU (PK, FK)</text>
<text text-anchor="start" x="420.5" y="-376.3" font-family="DejaVu Sans" font-size="14.00">DGXuat, SLXuat</text>
<polygon fill="none" stroke="#ce9844" points="411.5,-363.5 411.5,-489.5 589.5,-489.5 589.5,-363.5 411.5,-363.5"/>
</g>
<!-- PHIEUXUAT&#45;&gt;CTPX -->
<g id="edge1" class="edge">
<title>PHIEUXUAT&#45;&gt;CTPX</title>
<path fill="none" stroke="#58748b" stroke-width="1.5" d="M310.03,-343.86C330.97,-343.22 354.96,-344.45 376,-350.5 385.64,-353.27 395.27,-357.02 404.65,-361.38"/>
<polygon fill="#58748b" stroke="#58748b" stroke-width="1.5" points="403.55,-363.76 411.44,-364.65 405.83,-359.03 403.55,-363.76"/>
<text text-anchor="middle" x="364.5" y="-353.5" font-family="DejaVu Sans" font-size="10.00">1 : N</text>
</g>
<!-- PHIEUNHAP -->
<g id="node2" class="node">
<title>PHIEUNHAP</title>
<polygon fill="#d8ecff" stroke="transparent" points="200.5,-634.5 200.5,-665.5 310.5,-665.5 310.5,-634.5 200.5,-634.5"/>
<text text-anchor="start" x="208.5" y="-647.3" font-family="DejaVu Sans" font-weight="bold" font-size="14.00">PHIEUNHAP</text>
<text text-anchor="start" x="208.5" y="-615.3" font-family="DejaVu Sans" font-size="14.00">SoPN (PK)</text>
<text text-anchor="start" x="208.5" y="-584.3" font-family="DejaVu Sans" font-size="14.00">NgayNhap</text>
<polygon fill="none" stroke="#3575ae" points="199.5,-572 199.5,-667 311.5,-667 311.5,-572 199.5,-572"/>
</g>
<!-- CTPN -->
<g id="node7" class="node">
<title>CTPN</title>
<polygon fill="#ffebbd" stroke="transparent" points="411.5,-625.5 411.5,-656.5 590.5,-656.5 590.5,-625.5 411.5,-625.5"/>
<text text-anchor="start" x="419.5" y="-638.3" font-family="DejaVu Sans" font-weight="bold" font-size="14.00">CHITIET_PHIEUNHAP</text>
<text text-anchor="start" x="419.5" y="-606.3" font-family="DejaVu Sans" font-size="14.00">SoPN (PK, FK)</text>
<text text-anchor="start" x="419.5" y="-575.3" font-family="DejaVu Sans" font-size="14.00">MaVTU (PK, FK)</text>
<text text-anchor="start" x="419.5" y="-544.3" font-family="DejaVu Sans" font-size="14.00">DGNhap, SLNhap</text>
<polygon fill="none" stroke="#ce9844" points="410,-531.5 410,-657.5 591,-657.5 591,-531.5 410,-531.5"/>
</g>
<!-- PHIEUNHAP&#45;&gt;CTPN -->
<g id="edge3" class="edge">
<title>PHIEUNHAP&#45;&gt;CTPN</title>
<path fill="none" stroke="#58748b" stroke-width="1.5" d="M311.64,-613.83C338.36,-611.08 371.26,-607.69 402.02,-604.53"/>
<polygon fill="#58748b" stroke="#58748b" stroke-width="1.5" points="402.6,-607.11 409.79,-603.73 402.06,-601.89 402.6,-607.11"/>
<text text-anchor="middle" x="364.5" y="-611.5" font-family="DejaVu Sans" font-size="10.00">1 : N</text>
</g>
<!-- VATTU -->
<g id="node3" class="node">
<title>VATTU</title>
<polygon fill="#d8ecff" stroke="transparent" points="206.5,-499.5 206.5,-530.5 304.5,-530.5 304.5,-499.5 206.5,-499.5"/>
<text text-anchor="start" x="230" y="-512.3" font-family="DejaVu Sans" font-weight="bold" font-size="14.00">VATTU</text>
<text text-anchor="start" x="214.5" y="-480.3" font-family="DejaVu Sans" font-size="14.00">MaVTU (PK)</text>
<text text-anchor="start" x="214.5" y="-449.3" font-family="DejaVu Sans" font-size="14.00">TenVTU</text>
<polygon fill="none" stroke="#3575ae" points="205.5,-437 205.5,-532 305.5,-532 305.5,-437 205.5,-437"/>
</g>
<!-- VATTU&#45;&gt;CTPX -->
<g id="edge2" class="edge">
<title>VATTU&#45;&gt;CTPX</title>
<path fill="none" stroke="#58748b" stroke-width="1.5" d="M305.67,-472.76C333.78,-466.05 370.01,-457.41 403.52,-449.41"/>
<polygon fill="#58748b" stroke="#58748b" stroke-width="1.5" points="404.39,-451.9 411.07,-447.61 403.17,-446.79 404.39,-451.9"/>
<text text-anchor="middle" x="364.5" y="-463.5" font-family="DejaVu Sans" font-size="10.00">1 : N</text>
</g>
<!-- VATTU&#45;&gt;CTPN -->
<g id="edge4" class="edge">
<title>VATTU&#45;&gt;CTPN</title>
<path fill="none" stroke="#58748b" stroke-width="1.5" d="M305.67,-506.76C333.51,-519.36 369.31,-535.57 402.55,-550.61"/>
<polygon fill="#58748b" stroke="#58748b" stroke-width="1.5" points="401.69,-553.1 409.6,-553.81 403.85,-548.32 401.69,-553.1"/>
<text text-anchor="middle" x="364.5" y="-538.5" font-family="DejaVu Sans" font-size="10.00">1 : N</text>
</g>
<!-- CTDH -->
<g id="node8" class="node">
<title>CTDH</title>
<polygon fill="#ffebbd" stroke="transparent" points="428.5,-286.5 428.5,-317.5 572.5,-317.5 572.5,-286.5 428.5,-286.5"/>
<text text-anchor="start" x="436.5" y="-299.3" font-family="DejaVu Sans" font-weight="bold" font-size="14.00">CHITIET_DONDH</text>
<text text-anchor="start" x="436.5" y="-267.3" font-family="DejaVu Sans" font-size="14.00">SoDH (PK, FK)</text>
<text text-anchor="start" x="436.5" y="-236.3" font-family="DejaVu Sans" font-size="14.00">MaVTU (PK, FK)</text>
<polygon fill="none" stroke="#ce9844" points="427.5,-224 427.5,-319 573.5,-319 573.5,-224 427.5,-224"/>
</g>
<!-- VATTU&#45;&gt;CTDH -->
<g id="edge6" class="edge">
<title>VATTU&#45;&gt;CTDH</title>
<path fill="none" stroke="#58748b" stroke-width="1.5" d="M305.53,-437.94C335.31,-410.05 374.33,-374.17 410,-343.5 417.35,-337.18 425.14,-330.66 432.93,-324.25"/>
<polygon fill="#58748b" stroke="#58748b" stroke-width="1.5" points="434.74,-326.16 438.88,-319.38 431.41,-322.1 434.74,-326.16"/>
<text text-anchor="middle" x="364.5" y="-395.5" font-family="DejaVu Sans" font-size="10.00">1 : N</text>
</g>
<!-- NHACC -->
<g id="node4" class="node">
<title>NHACC</title>
<polygon fill="#d8ecff" stroke="transparent" points="1.5,-106.5 1.5,-137.5 100.5,-137.5 100.5,-106.5 1.5,-106.5"/>
<text text-anchor="start" x="23" y="-119.3" font-family="DejaVu Sans" font-weight="bold" font-size="14.00">NHACC</text>
<text text-anchor="start" x="9.5" y="-87.3" font-family="DejaVu Sans" font-size="14.00">MaNCC (PK)</text>
<text text-anchor="start" x="9.5" y="-56.3" font-family="DejaVu Sans" font-size="14.00">TenNCC</text>
<text text-anchor="start" x="9.5" y="-25.3" font-family="DejaVu Sans" font-size="14.00">DiaChi</text>
<polygon fill="none" stroke="#3575ae" points="0,-12.5 0,-138.5 101,-138.5 101,-12.5 0,-12.5"/>
</g>
<!-- DONDH -->
<g id="node5" class="node">
<title>DONDH</title>
<polygon fill="#d8ecff" stroke="transparent" points="206.5,-229.5 206.5,-260.5 305.5,-260.5 305.5,-229.5 206.5,-229.5"/>
<text text-anchor="start" x="226.5" y="-242.3" font-family="DejaVu Sans" font-weight="bold" font-size="14.00">DONDH</text>
<text text-anchor="start" x="214.5" y="-210.3" font-family="DejaVu Sans" font-size="14.00">SoDH (PK)</text>
<text text-anchor="start" x="214.5" y="-179.3" font-family="DejaVu Sans" font-size="14.00">NgayDH</text>
<text text-anchor="start" x="214.5" y="-148.3" font-family="DejaVu Sans" font-size="14.00">MaNCC (FK)</text>
<polygon fill="none" stroke="#3575ae" points="205,-135.5 205,-261.5 306,-261.5 306,-135.5 205,-135.5"/>
</g>
<!-- NHACC&#45;&gt;DONDH -->
<g id="edge7" class="edge">
<title>NHACC&#45;&gt;DONDH</title>
<path fill="none" stroke="#58748b" stroke-width="1.5" d="M101.16,-105.59C130.41,-123.31 167.5,-145.79 197.88,-164.19"/>
<polygon fill="#58748b" stroke="#58748b" stroke-width="1.5" points="196.87,-166.65 204.65,-168.3 199.6,-162.16 196.87,-166.65"/>
<text text-anchor="middle" x="146.5" y="-139.5" font-family="DejaVu Sans" font-size="10.00">1 : N</text>
</g>
<!-- SDT -->
<g id="node9" class="node">
<title>SDT</title>
<polygon fill="#d9f5e9" stroke="transparent" points="193.5,-62.5 193.5,-93.5 318.5,-93.5 318.5,-62.5 193.5,-62.5"/>
<text text-anchor="start" x="209" y="-75.3" font-family="DejaVu Sans" font-weight="bold" font-size="14.00">NHACC_SDT</text>
<text text-anchor="start" x="201.5" y="-43.3" font-family="DejaVu Sans" font-size="14.00">MaNCC (PK, FK)</text>
<text text-anchor="start" x="201.5" y="-12.3" font-family="DejaVu Sans" font-size="14.00">SDT (PK)</text>
<polygon fill="none" stroke="#4c997d" points="192,0 192,-95 319,-95 319,0 192,0"/>
</g>
<!-- NHACC&#45;&gt;SDT -->
<g id="edge8" class="edge">
<title>NHACC&#45;&gt;SDT</title>
<path fill="none" stroke="#58748b" stroke-width="1.5" d="M101.16,-68.65C126.16,-65.2 156.89,-60.96 184.26,-57.19"/>
<polygon fill="#58748b" stroke="#58748b" stroke-width="1.5" points="184.82,-59.76 191.89,-56.14 184.1,-54.56 184.82,-59.76"/>
<text text-anchor="middle" x="146.5" y="-66.5" font-family="DejaVu Sans" font-size="10.00">1 : N</text>
</g>
<!-- DONDH&#45;&gt;CTDH -->
<g id="edge5" class="edge">
<title>DONDH&#45;&gt;CTDH</title>
<path fill="none" stroke="#58748b" stroke-width="1.5" d="M306.26,-213.45C338.93,-223.26 382.39,-236.32 419.82,-247.56"/>
<polygon fill="#58748b" stroke="#58748b" stroke-width="1.5" points="419.28,-250.14 427.22,-249.79 420.79,-245.11 419.28,-250.14"/>
<text text-anchor="middle" x="364.5" y="-235.5" font-family="DejaVu Sans" font-size="10.00">1 : N</text>
</g>
</g>
</svg>
